<svg xmlns="http://www.w3.org/2000/svg" viewBox="0 0 1024 1024" role="img" aria-label="Hermes Dock app icon">
  <defs>
    <linearGradient id="bg" x1="128" y1="96" x2="896" y2="928" gradientUnits="userSpaceOnUse">
      <stop stop-color="#17221d"/>
      <stop offset="1" stop-color="#0c1210"/>
    </linearGradient>
    <linearGradient id="wingLeft" x1="210" y1="220" x2="516" y2="430" gradientUnits="userSpaceOnUse">
      <stop stop-color="#3dd6c6"/>
      <stop offset="1" stop-color="#8ee66b"/>
    </linearGradient>
    <linearGradient id="wingRight" x1="514" y1="220" x2="814" y2="430" gradientUnits="userSpaceOnUse">
      <stop stop-color="#ffd15a"/>
      <stop offset="1" stop-color="#8ee66b"/>
    </linearGradient>
  </defs>
  <rect x="40" y="40" width="944" height="944" rx="172" fill="url(#bg)"/>
  <rect x="76" y="76" width="872" height="872" rx="142" fill="none" stroke="#2a473b" stroke-width="20"/>
  <path d="M512 206 232 350l56 68 224-96Z" fill="url(#wingLeft)"/>
  <path d="M512 206 792 350l-56 68-224-96Z" fill="url(#wingRight)"/>
  <path d="M512 282 312 466h400Z" fill="#10251f"/>
  <rect x="278" y="380" width="72" height="272" rx="24" fill="#47d7c7"/>
  <rect x="476" y="322" width="72" height="330" rx="24" fill="#8ee66b"/>
  <rect x="674" y="380" width="72" height="272" rx="24" fill="#ffd15a"/>
  <rect x="224" y="524" width="164" height="116" rx="18" fill="#2fb9a7"/>
  <rect x="430" y="524" width="164" height="116" rx="18" fill="#7bd85e"/>
  <rect x="636" y="524" width="164" height="116" rx="18" fill="#e8b94d"/>
  <path d="M250 568h112M456 568h112M662 568h112" stroke="#10251f" stroke-width="18" stroke-linecap="round" opacity=".7"/>
  <rect x="202" y="654" width="620" height="78" rx="32" fill="#9af06f"/>
  <rect x="270" y="744" width="484" height="50" rx="25" fill="#26493d"/>
  <circle cx="512" cy="769" r="16" fill="#9af06f"/>
</svg>
