<svg width="206" height="62" viewBox="0 0 206 62" fill="none" xmlns="http://www.w3.org/2000/svg">
  <path d="M29 4 51 16.7v25.6L29 55 7 42.3V16.7L29 4Z" fill="#2369DB"/>
  <path d="m29 4 22 12.7-22 12.7L7 16.7 29 4Z" fill="#4E91FA"/>
  <path d="M29 29.4v25.5L7 42.3V16.7l22 12.7Z" fill="#1554BA"/>
  <path d="M29 29.4v25.5l22-12.6V16.7L29 29.4Z" fill="#2369DB"/>
  <path d="m18.5 22.8 10.5-6 10.5 6v12l-10.5 6-10.5-6v-12Z" stroke="white" stroke-width="3.3" stroke-linejoin="round"/>
  <path d="m29 17v12.4m-10.5-6.6L29 29.4l10.5-6.6" stroke="white" stroke-width="3.3" stroke-linecap="round" stroke-linejoin="round"/>
  <text x="67" y="43" fill="#173D92" font-family="PingFang SC, Microsoft YaHei, sans-serif" font-size="36" font-weight="800" letter-spacing="-2">企智盒</text>
</svg>
